<?xml version="1.0"?>

<!DOCTYPE svg PUBLIC '-//W3C//DTD SVG 1.0//EN' 'http://www.w3.org/TR/2001/REC-SVG-20010904/DTD/svg10.dtd'>
<svg xmlns:xlink="http://www.w3.org/1999/xlink" style="fill-opacity:1; color-rendering:auto; color-interpolation:auto; text-rendering:auto; stroke:black; stroke-linecap:square; stroke-miterlimit:10; shape-rendering:auto; stroke-opacity:1; fill:black; stroke-dasharray:none; font-weight:normal; stroke-width:1; font-family:&apos;Dialog&apos;; font-style:normal; stroke-linejoin:miter; font-size:12; stroke-dashoffset:0; image-rendering:auto;" xmlns="http://www.w3.org/2000/svg">
  <!--Generated by the Chemistry Development Kit (http://cdk.sf.net/) with Batik SVG Generator-->
  <defs id="genericDefs" />
  <g>
    <g style="text-rendering:optimizeLegibility;">
      <polygon style="stroke:none;" points=" 240 930 241 931 272 913 271 912" />
      <polygon style="stroke:none;" points=" 243 935 244 936 275 918 274 917" />
      <polygon style="stroke:none;" points=" 243 932 242 933 210 915 211 914" />
      <polygon style="stroke:none;" points=" 274 914 273 915 305 933 306 932" />
      <polygon style="stroke:none;" points=" 210 914 211 915 176 930 175 929" />
      <polygon style="stroke:none;" points=" 204 909 205 910 176 923 175 922" />
      <polygon style="stroke:none;" points=" 207 878 206 879 210 915 211 914" />
      <polygon style="stroke:none;" points=" 303 930 304 931 335 913 334 912" />
      <polygon style="stroke:none;" points=" 306 935 307 936 338 918 337 917" />
      <polygon style="stroke:none;" points=" 176 929 175 930 153 903 154 902" />
      <polygon style="stroke:none;" points=" 175 929 176 930 170 966 169 965" />
      <polygon style="stroke:none;" points=" 172 870 171 871 206 879 207 878" />
      <polygon style="stroke:none;" points=" 206 878 207 879 235 855 234 854" />
      <polygon style="stroke:none;" points=" 207 878 206 879 240 892 241 891" />
      <polygon style="stroke:none;" points=" 337 914 336 915 368 933 369 932" />
      <polygon style="stroke:none;" points=" 153 902 154 903 172 871 171 870" />
      <polygon style="stroke:none;" points=" 147 897 148 898 164 870 163 869" />
      <polygon style="stroke:none;" points=" 117 901 117 903 154 903 154 901" />
      <polygon style="stroke:none;" points=" 169 965 170 966 136 977 135 976" />
      <polygon style="stroke:none;" points=" 172 870 171 871 153 840 154 839" />
      <polygon style="stroke:none;" points=" 235 854 234 855 224 819 225 818" />
      <polygon style="stroke:none;" points=" 366 930 367 931 398 915 397 914" />
      <polygon style="stroke:none;" points=" 369 935 370 936 401 920 400 919" />
      <polygon style="stroke:none;" points=" 99 870 98 871 116 903 117 902" />
      <polygon style="stroke:none;" points=" 106 869 105 870 121 898 122 897" />
      <polygon style="stroke:none;" points=" 135 976 136 977 128 1012 127 1011" />
      <polygon style="stroke:none;" points=" 154 838 154 840 117 840 117 838" />
      <polygon style="stroke:none;" points=" 151 845 151 847 120 847 120 845" />
      <polygon style="stroke:none;" points=" 224 818 225 819 250 793 249 792" />
      <polygon style="stroke:none;" points=" 399 916 400 917 404 881 403 880" />
      <polygon style="stroke:none;" points=" 434 929 433 930 399 917 400 916" />
      <polygon style="stroke:none;" points=" 116 839 117 840 99 871 98 870" />
      <polygon style="stroke:none;" points=" 127 1011 128 1012 94 1024 93 1023" />
      <polygon style="stroke:none;" points=" 117 839 116 840 98 808 99 807" />
      <polygon style="stroke:none;" points=" 250 792 249 793 239 758 240 757" />
      <polygon style="stroke:none;" points=" 403 880 404 881 440 871 439 870" />
      <polygon style="stroke:none;" points=" 403 880 404 881 406 845 405 844" />
      <polygon style="stroke:none;" points=" 404 880 403 881 380 857 381 856" />
      <polygon style="stroke:none;" points=" 457 902 458 903 434 930 433 929" />
      <polygon style="stroke:none;" points=" 434 929 433 930 440 966 441 965" />
      <polygon style="stroke:none;" points=" 93 1023 94 1024 86 1059 85 1058" />
      <polygon style="stroke:none;" points=" 99 807 98 808 82 775 83 774" />
      <polygon style="stroke:none;" points=" 96 805 97 806 66 824 65 823" />
      <polygon style="stroke:none;" points=" 99 810 100 811 69 829 68 828" />
      <polygon style="stroke:none;" points=" 96 805 97 806 124 789 123 788" />
      <polygon style="stroke:none;" points=" 99 810 100 811 127 794 126 793" />
      <polygon style="stroke:none;" points=" 236 755 237 756 263 730 262 729" />
      <polygon style="stroke:none;" points=" 241 760 242 761 268 735 267 734" />
      <polygon style="stroke:none;" points=" 240 757 239 758 204 749 205 748" />
      <polygon style="stroke:none;" points=" 440 870 439 871 457 903 458 902" />
      <polygon style="stroke:none;" points=" 447 869 446 870 462 898 463 897" />
      <polygon style="stroke:none;" points=" 457 839 458 840 440 871 439 870" />
      <polygon style="stroke:none;" points=" 458 901 458 903 495 903 495 901" />
      <polygon style="stroke:none;" points=" 440 965 441 966 414 990 413 989" />
      <polygon style="stroke:none;" points=" 86 1056 85 1057 57 1052 58 1051" />
      <polygon style="stroke:none;" points=" 85 1061 84 1062 56 1057 57 1056" />
      <polygon style="stroke:none;" points=" 86 1056 85 1057 118 1066 119 1065" />
      <polygon style="stroke:none;" points=" 85 1061 84 1062 117 1071 118 1070" />
      <polygon style="stroke:none;" points=" 85 1058 86 1059 77 1098 76 1097" />
      <polygon style="stroke:none;" points=" 495 838 495 840 458 840 458 838" />
      <polygon style="stroke:none;" points=" 492 845 492 847 461 847 461 845" />
      <polygon style="stroke:none;" points=" 494 902 495 903 513 871 512 870" />
      <polygon style="stroke:none;" points=" 488 897 489 898 505 870 504 869" />
      <polygon style="stroke:none;" points=" 414 989 413 990 419 1024 420 1023" />
      <polygon style="stroke:none;" points=" 513 870 512 871 494 840 495 839" />
      <polygon style="stroke:none;" points=" 494 839 495 840 513 808 512 807" />
      <polygon style="stroke:none;" points=" 419 1023 420 1024 392 1047 391 1046" />
      <polygon style="stroke:none;" points=" 512 807 513 808 541 789 540 788" />
      <polygon style="stroke:none;" points=" 515 806 514 807 496 776 497 775" />
      <polygon style="stroke:none;" points=" 510 809 509 810 491 779 492 778" />
      <polygon style="stroke:none;" points=" 515 806 514 807 533 833 534 832" />
      <polygon style="stroke:none;" points=" 510 809 509 810 528 836 529 835" />
      <polygon style="stroke:none;" points=" 392 1046 391 1047 398 1083 399 1082" />
      <polygon style="stroke:none;" points=" 397 1080 398 1081 365 1089 364 1088" />
      <polygon style="stroke:none;" points=" 398 1085 399 1086 366 1094 365 1093" />
      <polygon style="stroke:none;" points=" 399 1082 398 1083 404 1118 405 1117" />
      <polygon style="stroke:none;" points=" 397 1080 398 1081 434 1069 433 1068" />
      <polygon style="stroke:none;" points=" 398 1085 399 1086 435 1074 434 1073" />
      <rect x="170" y="921" width="13" style="fill:white; stroke:none;" height="16" />
      <rect x="179" y="913" width="11" style="fill:white; stroke:none;" height="12" />
      <text x="172" y="935" style="fill:blue; stroke:none;" xml:space="preserve">N</text>
      <text x="181" y="923" style="fill:blue; stroke:none;" xml:space="preserve">+</text>
      <rect x="428" y="921" width="13" style="fill:white; stroke:none;" height="16" />
      <text x="430" y="935" style="fill:blue; stroke:none;" xml:space="preserve">N</text>
      <rect x="93" y="799" width="12" style="fill:white; stroke:none;" height="16" />
      <text x="95" y="813" style="fill:rgb(178,178,0); stroke:none;" xml:space="preserve">S</text>
      <rect x="80" y="1050" width="12" style="fill:white; stroke:none;" height="16" />
      <text x="82" y="1064" style="fill:rgb(178,178,0); stroke:none;" xml:space="preserve">S</text>
      <rect x="77" y="766" width="13" style="fill:white; stroke:none;" height="16" />
      <text x="79" y="780" style="fill:red; stroke:none;" xml:space="preserve">O</text>
      <rect x="62" y="817" width="13" style="fill:white; stroke:none;" height="16" />
      <text x="64" y="831" style="fill:red; stroke:none;" xml:space="preserve">O</text>
      <rect x="120" y="782" width="13" style="fill:white; stroke:none;" height="16" />
      <text x="122" y="796" style="fill:red; stroke:none;" xml:space="preserve">O</text>
      <rect x="260" y="723" width="13" style="fill:white; stroke:none;" height="16" />
      <text x="262" y="737" style="fill:red; stroke:none;" xml:space="preserve">O</text>
      <rect x="52" y="1045" width="13" style="fill:white; stroke:none;" height="16" />
      <text x="54" y="1059" style="fill:red; stroke:none;" xml:space="preserve">O</text>
      <rect x="113" y="1059" width="13" style="fill:white; stroke:none;" height="16" />
      <text x="115" y="1073" style="fill:red; stroke:none;" xml:space="preserve">O</text>
      <rect x="71" y="1089" width="13" style="fill:white; stroke:none;" height="16" />
      <rect x="80" y="1081" width="7" style="fill:white; stroke:none;" height="12" />
      <text x="73" y="1103" style="fill:red; stroke:none;" xml:space="preserve">O</text>
      <text x="82" y="1091" style="fill:red; stroke:none;" xml:space="preserve">-</text>
      <rect x="507" y="799" width="12" style="fill:white; stroke:none;" height="16" />
      <text x="509" y="813" style="fill:rgb(178,178,0); stroke:none;" xml:space="preserve">S</text>
      <rect x="535" y="780" width="13" style="fill:white; stroke:none;" height="16" />
      <rect x="544" y="772" width="7" style="fill:white; stroke:none;" height="12" />
      <text x="537" y="794" style="fill:red; stroke:none;" xml:space="preserve">O</text>
      <text x="546" y="782" style="fill:red; stroke:none;" xml:space="preserve">-</text>
      <rect x="489" y="768" width="13" style="fill:white; stroke:none;" height="16" />
      <text x="491" y="782" style="fill:red; stroke:none;" xml:space="preserve">O</text>
      <rect x="526" y="825" width="13" style="fill:white; stroke:none;" height="16" />
      <text x="528" y="839" style="fill:red; stroke:none;" xml:space="preserve">O</text>
      <rect x="393" y="1074" width="12" style="fill:white; stroke:none;" height="16" />
      <text x="395" y="1088" style="fill:rgb(178,178,0); stroke:none;" xml:space="preserve">S</text>
      <rect x="360" y="1082" width="13" style="fill:white; stroke:none;" height="16" />
      <text x="362" y="1096" style="fill:red; stroke:none;" xml:space="preserve">O</text>
      <rect x="399" y="1109" width="13" style="fill:white; stroke:none;" height="16" />
      <rect x="408" y="1101" width="7" style="fill:white; stroke:none;" height="12" />
      <text x="401" y="1123" style="fill:red; stroke:none;" xml:space="preserve">O</text>
      <text x="410" y="1111" style="fill:red; stroke:none;" xml:space="preserve">-</text>
      <rect x="429" y="1062" width="13" style="fill:white; stroke:none;" height="16" />
      <text x="431" y="1076" style="fill:red; stroke:none;" xml:space="preserve">O</text>
    </g>
  </g>
</svg>
