<?xml version="1.0"?>

<!DOCTYPE svg PUBLIC '-//W3C//DTD SVG 1.0//EN' 'http://www.w3.org/TR/2001/REC-SVG-20010904/DTD/svg10.dtd'>
<svg xmlns:xlink="http://www.w3.org/1999/xlink" style="fill-opacity:1; color-rendering:auto; color-interpolation:auto; text-rendering:auto; stroke:black; stroke-linecap:square; stroke-miterlimit:10; shape-rendering:auto; stroke-opacity:1; fill:black; stroke-dasharray:none; font-weight:normal; stroke-width:1; font-family:&apos;Dialog&apos;; font-style:normal; stroke-linejoin:miter; font-size:12; stroke-dashoffset:0; image-rendering:auto;" xmlns="http://www.w3.org/2000/svg">
  <!--Generated by the Chemistry Development Kit (http://cdk.sf.net/) with Batik SVG Generator-->
  <defs id="genericDefs" />
  <g>
    <g style="text-rendering:optimizeLegibility;">
      <polygon style="stroke:none;" points=" 194 933 193 934 162 916 163 915" />
      <polygon style="stroke:none;" points=" 224 915 225 916 194 934 193 933" />
      <polygon style="stroke:none;" points=" 162 915 164 915 164 879 162 879" />
      <polygon style="stroke:none;" points=" 224 879 226 879 226 915 224 915" />
      <polygon style="stroke:none;" points=" 231 882 233 882 233 912 231 912" />
      <polygon style="stroke:none;" points=" 225 915 224 916 255 934 256 933" />
      <polygon style="stroke:none;" points=" 162 879 163 880 194 862 193 861" />
      <polygon style="stroke:none;" points=" 194 861 193 862 224 880 225 879" />
      <polygon style="stroke:none;" points=" 255 861 256 862 225 880 224 879" />
      <polygon style="stroke:none;" points=" 255 933 256 934 287 916 286 915" />
      <polygon style="stroke:none;" points=" 253 926 254 927 281 911 280 910" />
      <polygon style="stroke:none;" points=" 287 879 286 880 255 862 256 861" />
      <polygon style="stroke:none;" points=" 281 885 280 886 253 870 254 869" />
      <polygon style="stroke:none;" points=" 286 915 288 915 288 879 286 879" />
      <polygon style="stroke:none;" points=" 318 933 317 934 286 916 287 915" />
      <polygon style="stroke:none;" points=" 286 879 287 880 318 862 317 861" />
      <polygon style="stroke:none;" points=" 349 915 350 916 318 934 317 933" />
      <polygon style="stroke:none;" points=" 343 910 344 911 316 927 315 926" />
      <polygon style="stroke:none;" points=" 317 933 319 933 319 969 317 969" />
      <polygon style="stroke:none;" points=" 318 861 317 862 349 880 350 879" />
      <polygon style="stroke:none;" points=" 349 879 351 879 351 915 349 915" />
      <polygon style="stroke:none;" points=" 350 915 349 916 380 934 381 933" />
      <polygon style="stroke:none;" points=" 318 969 317 970 349 988 350 987" />
      <polygon style="stroke:none;" points=" 316 977 315 978 343 994 344 993" />
      <polygon style="stroke:none;" points=" 286 988 287 989 318 970 317 969" />
      <polygon style="stroke:none;" points=" 380 861 381 862 350 880 349 879" />
      <polygon style="stroke:none;" points=" 381 869 382 870 355 886 354 885" />
      <polygon style="stroke:none;" points=" 380 933 381 934 412 916 411 915" />
      <polygon style="stroke:none;" points=" 378 926 379 927 406 911 405 910" />
      <polygon style="stroke:none;" points=" 349 987 351 987 351 1023 349 1023" />
      <polygon style="stroke:none;" points=" 286 1024 288 1024 288 988 286 988" />
      <polygon style="stroke:none;" points=" 293 1021 295 1021 295 991 293 991" />
      <polygon style="stroke:none;" points=" 412 879 411 880 380 862 381 861" />
      <polygon style="stroke:none;" points=" 380 861 382 861 382 825 380 825" />
      <polygon style="stroke:none;" points=" 411 915 413 915 413 879 411 879" />
      <polygon style="stroke:none;" points=" 443 933 442 934 411 916 412 915" />
      <polygon style="stroke:none;" points=" 349 1023 350 1024 318 1042 317 1041" />
      <polygon style="stroke:none;" points=" 343 1018 344 1019 316 1035 315 1034" />
      <polygon style="stroke:none;" points=" 318 1041 317 1042 286 1025 287 1024" />
      <polygon style="stroke:none;" points=" 411 879 412 880 443 862 442 861" />
      <polygon style="stroke:none;" points=" 416 885 417 886 444 870 443 869" />
      <polygon style="stroke:none;" points=" 380 825 381 826 412 808 411 807" />
      <polygon style="stroke:none;" points=" 473 915 474 916 443 934 442 933" />
      <polygon style="stroke:none;" points=" 467 910 468 911 441 927 440 926" />
      <polygon style="stroke:none;" points=" 443 861 442 862 473 880 474 879" />
      <polygon style="stroke:none;" points=" 442 861 444 861 444 825 442 825" />
      <polygon style="stroke:none;" points=" 473 879 475 879 475 915 473 915" />
      <polygon style="stroke:none;" points=" 443 825 442 826 411 808 412 807" />
      <polygon style="stroke:none;" points=" 193 861 195 861 195 825 193 825" />
      <polygon style="stroke:none;" points=" 193 825 194 826 225 808 224 807" />
      <polygon style="stroke:none;" points=" 163 879 162 880 130 862 131 861" />
      <polygon style="stroke:none;" points=" 162 879 163 880 125 886 124 885" />
      <polygon style="stroke:none;" points=" 318 861 317 862 298 834 299 833" />
      <polygon style="stroke:none;" points=" 317 861 318 862 337 833 336 832" />
      <polygon style="stroke:none;" points=" 349 987 350 988 382 981 381 980" />
      <polygon style="stroke:none;" points=" 382 980 381 981 405 1008 406 1007" />
      <polygon style="stroke:none;" points=" 378 980 379 981 390 947 389 946" />
      <polygon style="stroke:none;" points=" 383 981 384 982 395 948 394 947" />
      <polygon style="stroke:none;" points=" 405 1007 406 1008 395 1042 394 1041" />
      <polygon style="stroke:none;" points=" 405 1007 406 1008 441 1000 440 999" />
      <rect x="188" y="853" width="13" style="fill:white; stroke:none;" height="16" />
      <text x="190" y="867" style="fill:blue; stroke:none;" xml:space="preserve">N</text>
      <rect x="437" y="853" width="13" style="fill:white; stroke:none;" height="16" />
      <rect x="446" y="845" width="11" style="fill:white; stroke:none;" height="12" />
      <text x="439" y="867" style="fill:blue; stroke:none;" xml:space="preserve">N</text>
      <text x="448" y="855" style="fill:blue; stroke:none;" xml:space="preserve">+</text>
      <rect x="400" y="999" width="13" style="fill:white; stroke:none;" height="16" />
      <text x="402" y="1013" style="fill:blue; stroke:none;" xml:space="preserve">N</text>
      <rect x="387" y="938" width="13" style="fill:white; stroke:none;" height="16" />
      <text x="389" y="952" style="fill:red; stroke:none;" xml:space="preserve">O</text>
    </g>
  </g>
</svg>
