<?xml version="1.0"?>

<!DOCTYPE svg PUBLIC '-//W3C//DTD SVG 1.0//EN' 'http://www.w3.org/TR/2001/REC-SVG-20010904/DTD/svg10.dtd'>
<svg xmlns:xlink="http://www.w3.org/1999/xlink" style="fill-opacity:1; color-rendering:auto; color-interpolation:auto; text-rendering:auto; stroke:black; stroke-linecap:square; stroke-miterlimit:10; shape-rendering:auto; stroke-opacity:1; fill:black; stroke-dasharray:none; font-weight:normal; stroke-width:1; font-family:&apos;Dialog&apos;; font-style:normal; stroke-linejoin:miter; font-size:12; stroke-dashoffset:0; image-rendering:auto;" xmlns="http://www.w3.org/2000/svg">
  <!--Generated by the Chemistry Development Kit (http://cdk.sf.net/) with Batik SVG Generator-->
  <defs id="genericDefs" />
  <g>
    <g style="text-rendering:optimizeLegibility;">
      <polygon style="stroke:none;" points=" 237 906 236 907 205 889 206 888" />
      <polygon style="stroke:none;" points=" 267 888 268 889 237 907 236 906" />
      <polygon style="stroke:none;" points=" 261 883 262 884 235 900 234 899" />
      <polygon style="stroke:none;" points=" 205 888 207 888 207 852 205 852" />
      <polygon style="stroke:none;" points=" 212 885 214 885 214 855 212 855" />
      <polygon style="stroke:none;" points=" 267 852 269 852 269 888 267 888" />
      <polygon style="stroke:none;" points=" 268 888 267 889 298 907 299 906" />
      <polygon style="stroke:none;" points=" 205 852 206 853 237 835 236 834" />
      <polygon style="stroke:none;" points=" 206 852 205 853 175 835 176 834" />
      <polygon style="stroke:none;" points=" 237 834 236 835 267 853 268 852" />
      <polygon style="stroke:none;" points=" 235 842 234 843 261 859 262 858" />
      <polygon style="stroke:none;" points=" 298 834 299 835 268 853 267 852" />
      <polygon style="stroke:none;" points=" 298 906 299 907 330 889 329 888" />
      <polygon style="stroke:none;" points=" 296 899 297 900 324 884 323 883" />
      <polygon style="stroke:none;" points=" 298 906 300 906 300 942 298 942" />
      <polygon style="stroke:none;" points=" 330 852 329 853 298 835 299 834" />
      <polygon style="stroke:none;" points=" 329 888 331 888 331 852 329 852" />
      <polygon style="stroke:none;" points=" 359 908 358 909 329 889 330 888" />
      <polygon style="stroke:none;" points=" 299 942 298 943 329 961 330 960" />
      <polygon style="stroke:none;" points=" 297 950 296 951 323 967 324 966" />
      <polygon style="stroke:none;" points=" 267 960 268 961 299 943 298 942" />
      <polygon style="stroke:none;" points=" 329 852 330 853 361 835 360 834" />
      <polygon style="stroke:none;" points=" 334 858 335 859 362 843 361 842" />
      <polygon style="stroke:none;" points=" 391 888 392 889 359 909 358 908" />
      <polygon style="stroke:none;" points=" 385 884 386 885 357 903 356 902" />
      <polygon style="stroke:none;" points=" 329 960 331 960 331 996 329 996" />
      <polygon style="stroke:none;" points=" 329 960 330 961 369 954 368 953" />
      <polygon style="stroke:none;" points=" 267 996 269 996 269 960 267 960" />
      <polygon style="stroke:none;" points=" 274 993 276 993 276 963 274 963" />
      <polygon style="stroke:none;" points=" 361 834 360 835 391 853 392 852" />
      <polygon style="stroke:none;" points=" 391 852 393 852 393 888 391 888" />
      <polygon style="stroke:none;" points=" 329 996 330 997 299 1014 298 1013" />
      <polygon style="stroke:none;" points=" 323 991 324 992 297 1007 296 1006" />
      <polygon style="stroke:none;" points=" 299 1013 298 1014 267 997 268 996" />
      <polygon style="stroke:none;" points=" 389 850 390 851 421 833 420 832" />
      <polygon style="stroke:none;" points=" 392 855 393 856 424 838 423 837" />
      <polygon style="stroke:none;" points=" 369 953 368 954 391 981 392 980" />
      <polygon style="stroke:none;" points=" 365 953 366 954 378 920 377 919" />
      <polygon style="stroke:none;" points=" 370 954 371 955 383 921 382 920" />
      <rect x="170" y="826" width="13" style="fill:white; stroke:none;" height="16" />
      <rect x="161" y="826" width="13" style="fill:white; stroke:none;" height="16" />
      <text x="172" y="840" style="fill:red; stroke:none;" xml:space="preserve">O</text>
      <text x="163" y="840" style="fill:red; stroke:none;" xml:space="preserve">H</text>
      <rect x="293" y="826" width="13" style="fill:white; stroke:none;" height="16" />
      <text x="295" y="840" style="fill:red; stroke:none;" xml:space="preserve">O</text>
      <rect x="417" y="826" width="13" style="fill:white; stroke:none;" height="16" />
      <text x="419" y="840" style="fill:red; stroke:none;" xml:space="preserve">O</text>
      <rect x="386" y="972" width="13" style="fill:white; stroke:none;" height="16" />
      <rect x="395" y="972" width="13" style="fill:white; stroke:none;" height="16" />
      <text x="388" y="986" style="fill:red; stroke:none;" xml:space="preserve">O</text>
      <text x="397" y="986" style="fill:red; stroke:none;" xml:space="preserve">H</text>
      <rect x="375" y="911" width="13" style="fill:white; stroke:none;" height="16" />
      <text x="377" y="925" style="fill:red; stroke:none;" xml:space="preserve">O</text>
    </g>
  </g>
</svg>
