<?xml version="1.0"?>

<!DOCTYPE svg PUBLIC '-//W3C//DTD SVG 1.0//EN' 'http://www.w3.org/TR/2001/REC-SVG-20010904/DTD/svg10.dtd'>
<svg xmlns:xlink="http://www.w3.org/1999/xlink" style="fill-opacity:1; color-rendering:auto; color-interpolation:auto; text-rendering:auto; stroke:black; stroke-linecap:square; stroke-miterlimit:10; shape-rendering:auto; stroke-opacity:1; fill:black; stroke-dasharray:none; font-weight:normal; stroke-width:1; font-family:&apos;Dialog&apos;; font-style:normal; stroke-linejoin:miter; font-size:12; stroke-dashoffset:0; image-rendering:auto;" xmlns="http://www.w3.org/2000/svg">
  <!--Generated by the Chemistry Development Kit (http://cdk.sf.net/) with Batik SVG Generator-->
  <defs id="genericDefs" />
  <g>
    <g style="text-rendering:optimizeLegibility;">
      <polygon style="stroke:none;" points=" 206 946 205 947 174 929 175 928" />
      <polygon style="stroke:none;" points=" 174 928 176 928 176 892 174 892" />
      <polygon style="stroke:none;" points=" 181 925 183 925 183 895 181 895" />
      <polygon style="stroke:none;" points=" 174 892 175 893 206 875 205 874" />
      <polygon style="stroke:none;" points=" 206 874 205 875 236 893 237 892" />
      <polygon style="stroke:none;" points=" 204 882 203 883 230 899 231 898" />
      <polygon style="stroke:none;" points=" 236 892 238 892 238 928 236 928" />
      <polygon style="stroke:none;" points=" 236 928 237 929 206 947 205 946" />
      <polygon style="stroke:none;" points=" 230 923 231 924 204 940 203 939" />
      <polygon style="stroke:none;" points=" 237 928 236 929 270 940 271 939" />
      <polygon style="stroke:none;" points=" 270 939 271 940 292 911 291 910" />
      <polygon style="stroke:none;" points=" 266 933 267 934 284 909 283 908" />
      <polygon style="stroke:none;" points=" 292 910 291 911 270 882 271 881" />
      <polygon style="stroke:none;" points=" 270 881 271 882 237 893 236 892" />
      <polygon style="stroke:none;" points=" 292 909 292 911 328 911 328 909" />
      <polygon style="stroke:none;" points=" 327 910 328 911 346 880 345 879" />
      <polygon style="stroke:none;" points=" 346 878 346 880 382 880 382 878" />
      <polygon style="stroke:none;" points=" 349 885 349 887 379 887 379 885" />
      <polygon style="stroke:none;" points=" 382 879 381 880 399 911 400 910" />
      <polygon style="stroke:none;" points=" 399 910 400 911 382 942 381 941" />
      <polygon style="stroke:none;" points=" 391 909 392 910 376 937 375 936" />
      <polygon style="stroke:none;" points=" 382 940 382 942 346 942 346 940" />
      <polygon style="stroke:none;" points=" 346 941 345 942 327 911 328 910" />
      <polygon style="stroke:none;" points=" 351 936 350 937 334 910 335 909" />
      <polygon style="stroke:none;" points=" 400 909 400 911 436 911 436 909" />
      <polygon style="stroke:none;" points=" 175 892 174 893 143 875 144 874" />
      <polygon style="stroke:none;" points=" 271 939 270 940 281 974 282 973" />
      <polygon style="stroke:none;" points=" 436 910 435 911 453 942 454 941" />
      <polygon style="stroke:none;" points=" 435 910 436 911 454 880 453 879" />
      <rect x="265" y="931" width="13" style="fill:white; stroke:none;" height="16" />
      <rect x="274" y="923" width="11" style="fill:white; stroke:none;" height="12" />
      <text x="267" y="945" style="fill:blue; stroke:none;" xml:space="preserve">N</text>
      <text x="276" y="933" style="fill:blue; stroke:none;" xml:space="preserve">+</text>
      <rect x="265" y="873" width="12" style="fill:white; stroke:none;" height="16" />
      <text x="267" y="887" style="fill:rgb(178,178,0); stroke:none;" xml:space="preserve">S</text>
      <rect x="430" y="902" width="13" style="fill:white; stroke:none;" height="16" />
      <text x="432" y="916" style="fill:blue; stroke:none;" xml:space="preserve">N</text>
    </g>
  </g>
</svg>
